<!--
  Chess piece set by Colin M.L. Burnett (GFDL / CC BY-SA 3.0 / GPL)
  Source: Wikimedia Commons "Chess cdt45" series (Cburnett), recolored to the
  Trivia & Games site palette (#f7f5ef white fill / #1f1f1f ink). Redistributed
  under the same tri-license; visible credit on the chess game page. Colors: #f7f5ef (white) / #1f1f1f (ink).
-->
<svg xmlns="http://www.w3.org/2000/svg" viewBox="0 0 45 45" role="img" aria-labelledby="title">
  <title id="title">Black pawn</title>
  <desc>Chess piece set by Colin M.L. Burnett (GFDL / CC BY-SA 3.0 / GPL)</desc>
  <path d="M22.5 9c-2.21 0-4 1.79-4 4 0 .89.29 1.71.78 2.38C17.33 16.5 16 18.59 16 21c0 2.03.94 3.84 2.41 5.03-3 1.06-7.41 5.55-7.41 13.47h23c0-7.92-4.41-12.41-7.41-13.47 1.47-1.19 2.41-3 2.41-5.03 0-2.41-1.33-4.5-3.28-5.62.49-.67.78-1.49.78-2.38 0-2.21-1.79-4-4-4z" fill="#1f1f1f" stroke="#f7f5ef" stroke-width="1.5" stroke-linecap="round" stroke-linejoin="round"/>
</svg>
